<svg id="Layer_1" xmlns="http://www.w3.org/2000/svg" viewBox="0 0 172 52"><style>.st0{fill:#ee8721}.st1{fill:#f8ad40}.st2{fill:#3c4d9c}.st3{fill:#1c1666}</style><path class="st0" d="M12.2 26.1L.9 3l21.5 23.1-21.5 23z"/><path class="st1" d="M12.2 26.1h10.2L.9 49.1z"/><path class="st2" d="M28.8 38.6l25 12.4-25-25-25 25z"/><path class="st3" d="M41.4 26l12.4 25-25-25 25-25zM28.8 13.4L53.8 1l-25 25-25-25z"/><path class="st2" d="M41.4 26H28.8l25-25"/><g><path class="st2" d="M64.6 15.3c0-6.4 3.3-11.5 10.2-11.5 2.5 0 4.2.5 5.2.9V8c-1.1-.6-2.6-1.1-4.9-1.1-4.4 0-6.6 3.1-6.6 8.4 0 4.9 2.5 7.8 6.9 7.8 2.1 0 3.7-.5 4.9-1.2v3.3c-1.5.7-3.2 1-5.4 1-6.7.1-10.3-4.5-10.3-10.9zM84.4 4.1H88V26h-3.7V4.1zM90.9 4.1h4l4.4 13.5c.5 1.6 1.1 3.7 1.4 4.7h.1c.2-1 .8-3.2 1.4-4.7l4.5-13.5h3.7L102.5 26h-4L90.9 4.1zM113.3 4.1h3.7V26h-3.7V4.1zM121.3 25.1v-3.2c1.4.7 3.5 1.4 5.5 1.4 2.6 0 4.2-1.1 4.2-3.2 0-2.3-1.8-2.8-5.1-4.3-2.3-1-4.5-2.5-4.5-6.1 0-3.9 2.9-5.9 7.1-5.9 2.2 0 4.3.6 5.2.9v3.2c-1.1-.5-3-1.1-5-1.1-2.5 0-3.7 1-3.7 2.8 0 1.8 1.3 2.4 3.6 3.3 2.8 1.4 6.3 2.3 6.3 7 0 3.9-3.1 6.3-7.4 6.3-2.5.1-4.6-.4-6.2-1.1zM142.6 7.1h-6v-3h15.9v3h-6.3V26h-3.6V7.1zM159 4.1h4.2l7.9 21.9h-4l-1.7-5.1h-9l-1.8 5.1h-3.7L159 4.1zm5.4 13.8l-2.1-6.3c-.5-1.5-1.1-3.3-1.3-4.3h-.1c-.3 1.1-.9 2.8-1.4 4.3l-2.2 6.3h7.1zM66.9 32.9h4.6c2.8 0 4.3 1.4 4.3 3.4 0 1.6-1 2.7-2.2 3 1.5.3 2.6 1.4 2.6 3.2 0 2.4-1.7 3.9-4.6 3.9h-4.7V32.9zm4.3 5.7c1.6 0 2.3-.7 2.3-2 0-1.1-.7-1.9-2.2-1.9h-2.1v3.8h2zm.1 6c1.6 0 2.4-.8 2.4-2.2 0-1.4-.8-2.2-2.4-2.2h-2.2v4.4h2.2zM82.2 32.9h2.6l4.8 13.5h-2.5l-1-3.1h-5.5l-1.1 3.1h-2.3l5-13.5zm3.4 8.5l-1.3-3.9c-.3-.9-.7-2-.8-2.7-.2.6-.5 1.7-.8 2.7l-1.4 3.9h4.3zM91.6 32.9H94l5.2 8.2c.4.6.8 1.5 1.1 2.1h.1c0-.6-.1-1.3-.1-1.9v-8.4h2v13.5h-2.4l-5.1-8.2c-.4-.6-.8-1.4-1.1-2.1v10.3h-2V32.9zM112.1 45.1l-4.2-5.2v6.6h-2.2V32.9h2.2v6.2l5-6.2h2.5l-5.2 6.3L114 44c.4.5.8.7 1.2.7h.3v1.7c-.3.1-.6.1-.8.1-1 0-1.7-.3-2.6-1.4z"/><g><path class="st2" d="M168.8 4.1c1.2 0 2.2.9 2.2 2.2 0 1.3-1.1 2.2-2.2 2.2-1.2 0-2.2-.9-2.2-2.2 0-1.3 1-2.2 2.2-2.2zm0 3.9c.9 0 1.7-.7 1.7-1.7s-.7-1.7-1.7-1.7c-.9 0-1.7.7-1.7 1.7.1 1 .8 1.7 1.7 1.7zm-.9-2.9h.9c.6 0 1 .2 1 .7 0 .5-.3.6-.6.7l.7 1.1h-.5l-.6-1h-.3v1h-.5V5.1zm.5 1h.4c.3 0 .5 0 .5-.3s-.3-.3-.5-.3h-.4v.6z"/></g></g></svg>